<?xml version="1.0" encoding="UTF-8"?> <!-- Generator: Adobe Illustrator 16.0.0, SVG Export Plug-In . SVG Version: 6.00 Build 0) --> <svg xmlns="http://www.w3.org/2000/svg" xmlns:xlink="http://www.w3.org/1999/xlink" id="Capa_1" x="0px" y="0px" width="686.838px" height="607px" viewBox="-37.422 0 686.838 607" xml:space="preserve"> <path fill="#AE7331" d="M295.417,6.217c-17.499,0-31.741,14.241-31.741,31.741c0,17.5,14.242,31.741,31.741,31.741h52.901v21.161 h-59.225c-11.966,0-23.689,4.112-33.042,11.593l-82.617,66.105c-5.597,4.487-12.644,6.943-19.817,6.943H83.812 c-17.5,0-31.74,14.241-31.74,31.741v95.222H30.911v-95.222c0-17.5-14.241-31.741-31.74-31.741c-17.5,0-31.741,14.241-31.741,31.741 v275.086c0,17.501,14.241,31.741,31.741,31.741c17.5,0,31.74-14.24,31.74-31.741v-95.221h21.161v95.221 c0,17.501,14.241,31.741,31.74,31.741h27.484c7.185,0,14.22,2.456,19.838,6.941l82.616,66.107 c9.332,7.479,21.057,11.593,33.023,11.593h139.589c11.967,0,23.709-4.114,33.062-11.593l78.319-62.655 c12.611-10.093,19.859-25.162,19.859-41.309v-53.728h21.16v63.481c0,11.67,9.49,21.161,21.161,21.161h31.74 c29.169,0,52.9-23.732,52.9-52.902V249.563c0-29.17-23.731-52.902-52.9-52.902h-31.74c-11.671,0-21.161,9.491-21.161,21.161v63.481 h-21.16V122.6c0-17.5-14.242-31.741-31.74-31.741h-52.902V69.698h52.902c17.498,0,31.74-14.241,31.74-31.741 c0-17.5-14.242-31.741-31.74-31.741H295.417z M295.417,27.377h190.446c5.827,0,10.579,4.75,10.579,10.58s-4.752,10.58-10.579,10.58 h-63.482c-5.841,0-10.581,4.741-10.581,10.581v31.741H369.48V59.118c0-5.84-4.742-10.581-10.581-10.581h-63.482 c-5.83,0-10.58-4.75-10.58-10.58S289.587,27.377,295.417,27.377z M289.094,112.02h59.225h10.581h63.481h63.482 c5.827,0,10.579,4.75,10.579,10.581v169.283c0,5.841,4.738,10.581,10.581,10.581h42.319c5.841,0,10.582-4.74,10.582-10.581v-74.061 h31.74c17.5,0,31.742,14.24,31.742,31.741v211.604c0,17.501-14.242,31.741-31.742,31.741h-31.74v-74.061 c0-5.841-4.741-10.582-10.582-10.582h-42.319c-5.843,0-10.581,4.741-10.581,10.582v64.307c0,9.702-4.338,18.735-11.903,24.798 l-78.318,62.654c-5.619,4.487-12.666,6.944-19.839,6.944H246.773c-7.185,0-14.221-2.457-19.839-6.944l-70.63-56.537h202.595 c5.839,0,10.581-4.74,10.581-10.581c0-5.84-4.742-10.58-10.581-10.58H115.553c-0.455,0-0.826,0.196-1.26,0.247 c-1.005-0.051-1.991-0.247-2.997-0.247H83.812c-5.83,0-10.58-4.751-10.58-10.58V376.525v-63.481V207.242 c0-5.83,4.75-10.581,10.58-10.581h69.805c11.967,0,23.69-4.112,33.043-11.592l82.618-66.106 C274.874,114.477,281.921,112.02,289.094,112.02z M-0.83,196.661c5.83,0,10.581,4.75,10.581,10.581v105.802v63.481v105.803 c0,5.829-4.751,10.58-10.581,10.58c-5.83,0-10.581-4.751-10.581-10.58V207.242C-11.41,201.412-6.66,196.661-0.83,196.661z M126.134,238.982c-5.84,0-10.581,4.741-10.581,10.582v21.159c0,5.84,4.741,10.581,10.581,10.581c5.839,0,10.58-4.741,10.58-10.581 v-21.159C136.713,243.723,131.973,238.982,126.134,238.982z M179.034,238.982c-5.84,0-10.58,4.741-10.58,10.582v21.159 c0,5.84,4.74,10.581,10.58,10.581c5.84,0,10.581-4.741,10.581-10.581v-21.159C189.615,243.723,184.875,238.982,179.034,238.982z M231.936,238.982c-5.84,0-10.58,4.741-10.58,10.582v21.159c0,5.84,4.739,10.581,10.58,10.581c5.84,0,10.581-4.741,10.581-10.581 v-21.159C242.517,243.723,237.775,238.982,231.936,238.982z M284.837,238.982c-5.84,0-10.581,4.741-10.581,10.582v21.159 c0,5.84,4.74,10.581,10.581,10.581c5.841,0,10.58-4.741,10.58-10.581v-21.159C295.417,243.723,290.678,238.982,284.837,238.982z M337.738,238.982c-5.842,0-10.579,4.741-10.579,10.582v21.159c0,5.84,4.737,10.581,10.579,10.581c5.838,0,10.58-4.741,10.58-10.581 v-21.159C348.318,243.723,343.576,238.982,337.738,238.982z M390.642,238.982c-5.843,0-10.582,4.741-10.582,10.582v21.159 c0,5.84,4.739,10.581,10.582,10.581c5.837,0,10.579-4.741,10.579-10.581v-21.159C401.221,243.723,396.479,238.982,390.642,238.982z M443.541,238.982c-5.842,0-10.58,4.741-10.58,10.582v21.159c0,5.84,4.738,10.581,10.58,10.581c5.84,0,10.58-4.741,10.58-10.581 v-21.159C454.121,243.723,449.381,238.982,443.541,238.982z M30.911,323.625h21.161v42.321H30.911V323.625z M401.221,492.908 c-5.842,0-10.579,4.74-10.579,10.58c0,5.841,4.737,10.581,10.579,10.581h42.32c5.84,0,10.58-4.74,10.58-10.581 c0-5.84-4.74-10.58-10.58-10.58H401.221z"></path> <path fill="#AE7331" d="M386.362,603.563H246.773c-13.066,0-25.871-4.497-36.057-12.659l-82.613-66.105 c-4.747-3.79-10.718-5.878-16.808-5.878H83.812c-20.177,0-36.592-16.415-36.592-36.593v-90.37H35.762v90.37 c0,20.178-16.416,36.593-36.592,36.593c-20.177,0-36.592-16.415-36.592-36.593V207.242c0-20.177,16.415-36.592,36.592-36.592 c20.176,0,36.592,16.415,36.592,36.592v90.371H47.22v-90.371c0-20.177,16.415-36.592,36.592-36.592h69.805 c6.095,0,12.056-2.087,16.783-5.878l82.621-66.108c10.206-8.161,23.016-12.655,36.073-12.655h54.372V74.55h-48.049 c-20.177,0-36.592-16.415-36.592-36.592c0-20.176,16.415-36.592,36.592-36.592h190.446c20.176,0,36.592,16.416,36.592,36.592 c0,20.177-16.416,36.592-36.592,36.592h-48.051v11.458h48.051c20.176,0,36.592,16.415,36.592,36.592v153.853h11.456v-58.63 c0-14.343,11.67-26.012,26.014-26.012h31.74c31.845,0,57.751,25.907,57.751,57.753v211.604c0,31.845-25.906,57.754-57.751,57.754 h-31.74c-14.344,0-26.014-11.669-26.014-26.013v-58.629h-11.456v48.875c0,17.633-7.902,34.071-21.681,45.097l-78.319,62.656 C412.249,599.068,399.432,603.563,386.362,603.563z M26.06,382.255h30.863v100.073c0,14.827,12.062,26.89,26.889,26.89h27.484 c8.281,0,16.401,2.842,22.865,8.003l82.62,66.11c8.474,6.791,19.124,10.528,29.992,10.528h139.589 c10.875,0,21.541-3.738,30.032-10.529l78.317-62.655c11.465-9.175,18.04-22.852,18.04-37.521v-58.578h30.863v68.332 c0,8.993,7.316,16.31,16.31,16.31h31.74c26.494,0,48.049-21.556,48.049-48.051V249.563c0-26.496-21.555-48.052-48.049-48.052h-31.74 c-8.993,0-16.31,7.317-16.31,16.311v68.333h-30.863V122.6c0-14.828-12.062-26.89-26.889-26.89h-57.754V64.848h57.754 c14.826,0,26.889-12.063,26.889-26.89c0-14.827-12.062-26.889-26.889-26.889H295.417c-14.827,0-26.889,12.062-26.889,26.889 c0,14.827,12.062,26.89,26.889,26.89h57.753V95.71h-64.076c-10.863,0-21.522,3.739-30.012,10.53l-82.617,66.104 c-6.439,5.162-14.555,8.007-22.848,8.007H83.812c-14.827,0-26.889,12.062-26.889,26.89v100.074H26.06V207.242 c0-14.828-12.062-26.89-26.889-26.89c-14.827,0-26.89,12.062-26.89,26.89v275.086c0,14.827,12.062,26.89,26.89,26.89 c14.827,0,26.889-12.062,26.889-26.89V382.255z M386.382,582.402H246.773c-8.284,0-16.405-2.844-22.866-8.007l-81.427-65.178 h216.419c3.159,0,5.729-2.569,5.729-5.729c0-3.158-2.57-5.729-5.729-5.729H115.947c-0.303,0.079-0.658,0.163-1.078,0.213 l-0.412,0.049l-0.415-0.021c-0.526-0.028-1.048-0.083-1.569-0.143c-0.449-0.051-0.873-0.099-1.178-0.099H83.812 c-8.509,0-15.431-6.923-15.431-15.432V207.242c0-8.509,6.922-15.432,15.431-15.432h69.805c10.865,0,21.523-3.74,30.013-10.53 l82.617-66.106c6.44-5.161,14.555-8.006,22.847-8.006h196.77c8.509,0,15.431,6.923,15.431,15.433v169.283 c0,3.159,2.57,5.729,5.729,5.729h42.319c3.16,0,5.73-2.57,5.73-5.729V212.97h36.592c20.178,0,36.593,16.416,36.593,36.593v211.604 c0,20.178-16.415,36.593-36.593,36.593h-36.592v-78.912c0-3.161-2.57-5.73-5.73-5.73h-42.319c-3.159,0-5.729,2.569-5.729,5.73 v64.307c0,11.178-5.001,21.596-13.721,28.583l-78.321,62.657C402.785,579.559,394.665,582.402,386.382,582.402z M170.128,518.921 l59.839,47.897c4.745,3.791,10.715,5.88,16.807,5.88h139.608c6.091,0,12.061-2.089,16.812-5.884l78.314-62.651 c6.406-5.134,10.082-12.791,10.082-21.009v-64.307c0-8.511,6.924-15.434,15.433-15.434h42.319c8.51,0,15.434,6.923,15.434,15.434 v69.209h26.889c14.828,0,26.89-12.062,26.89-26.89V249.563c0-14.828-12.062-26.891-26.89-26.891h-26.889v69.21 c0,8.509-6.924,15.432-15.434,15.432h-42.319c-8.509,0-15.433-6.923-15.433-15.432V122.6c0-3.159-2.568-5.73-5.728-5.73h-196.77 c-6.094,0-12.054,2.088-16.783,5.877l-82.621,66.11c-10.204,8.161-23.015,12.654-36.074,12.654H83.812 c-3.159,0-5.729,2.571-5.729,5.73v275.086c0,3.159,2.57,5.729,5.729,5.729h27.484c0.853,0,1.605,0.085,2.269,0.161 c0.122,0.014,0.243,0.028,0.363,0.041c0.434-0.104,0.979-0.202,1.625-0.202h243.347c8.509,0,15.433,6.924,15.433,15.432 c0,8.51-6.924,15.433-15.433,15.433H170.128z M443.541,518.921h-42.32c-8.51,0-15.432-6.923-15.432-15.433 c0-8.508,6.922-15.432,15.432-15.432h42.32c8.509,0,15.433,6.924,15.433,15.432C458.974,511.998,452.05,518.921,443.541,518.921z M-0.83,497.76c-8.509,0-15.432-6.923-15.432-15.432V207.242c0-8.509,6.922-15.432,15.432-15.432 c8.509,0,15.432,6.922,15.432,15.432v275.086C14.602,490.837,7.679,497.76-0.83,497.76z M-0.83,201.512 c-3.159,0-5.729,2.571-5.729,5.73v275.086c0,3.159,2.57,5.729,5.729,5.729s5.729-2.569,5.729-5.729V207.242 C4.9,204.083,2.329,201.512-0.83,201.512z M443.541,413.117H295.417c-8.509,0-15.431-6.922-15.431-15.431 c0-8.51,6.922-15.432,15.431-15.432h148.124c8.509,0,15.433,6.922,15.433,15.432C458.974,406.195,452.05,413.117,443.541,413.117z M253.097,413.117h-42.321c-8.509,0-15.432-6.922-15.432-15.431c0-8.51,6.922-15.432,15.432-15.432h42.321 c8.509,0,15.431,6.922,15.431,15.432C268.528,406.195,261.605,413.117,253.097,413.117z M56.923,370.797H26.06v-52.023h30.863 V370.797z M35.762,361.094H47.22v-32.617H35.762V361.094z M443.541,286.155c-8.509,0-15.432-6.923-15.432-15.433v-21.159 c0-8.51,6.923-15.433,15.432-15.433s15.433,6.923,15.433,15.433v21.159C458.974,279.232,452.05,286.155,443.541,286.155z M390.642,286.155c-8.511,0-15.434-6.923-15.434-15.433v-21.159c0-8.51,6.923-15.433,15.434-15.433 c8.508,0,15.43,6.923,15.43,15.433v21.159C406.071,279.232,399.149,286.155,390.642,286.155z M337.738,286.155 c-8.509,0-15.431-6.923-15.431-15.433v-21.159c0-8.51,6.922-15.433,15.431-15.433s15.432,6.923,15.432,15.433v21.159 C353.17,279.232,346.247,286.155,337.738,286.155z M284.837,286.155c-8.509,0-15.432-6.923-15.432-15.433v-21.159 c0-8.51,6.922-15.433,15.432-15.433c8.509,0,15.432,6.923,15.432,15.433v21.159C300.269,279.232,293.346,286.155,284.837,286.155z M231.936,286.155c-8.509,0-15.432-6.923-15.432-15.433v-21.159c0-8.51,6.922-15.433,15.432-15.433 c8.509,0,15.432,6.923,15.432,15.433v21.159C247.367,279.232,240.444,286.155,231.936,286.155z M179.034,286.155 c-8.509,0-15.431-6.923-15.431-15.433v-21.159c0-8.51,6.922-15.433,15.431-15.433c8.51,0,15.432,6.923,15.432,15.433v21.159 C194.466,279.232,187.544,286.155,179.034,286.155z M126.134,286.155c-8.509,0-15.433-6.923-15.433-15.433v-21.159 c0-8.51,6.924-15.433,15.433-15.433c8.508,0,15.431,6.923,15.431,15.433v21.159C141.565,279.232,134.642,286.155,126.134,286.155z M416.651,95.71h-52.022V59.118c0-3.159-2.57-5.729-5.729-5.729h-63.482c-8.509,0-15.431-6.923-15.431-15.432 s6.922-15.431,15.431-15.431h190.446c8.509,0,15.431,6.922,15.431,15.431s-6.922,15.432-15.431,15.432h-63.482 c-3.159,0-5.729,2.57-5.729,5.729V95.71z M374.332,86.008h32.616v-26.89c0-8.509,6.923-15.431,15.433-15.431h63.482 c3.159,0,5.728-2.57,5.728-5.729s-2.568-5.729-5.728-5.729H295.417c-3.159,0-5.729,2.57-5.729,5.729s2.569,5.729,5.729,5.729h63.482 c8.509,0,15.433,6.922,15.433,15.431V86.008z"></path> <path fill="#AE7331" d="M147.293,361.094c-20.177,0-36.593,16.415-36.593,36.593s16.416,36.593,36.593,36.593 s36.592-16.415,36.592-36.593S167.471,361.094,147.293,361.094z M147.293,408.266c-5.83,0-10.58-4.751-10.58-10.579 c0-5.83,4.75-10.579,10.58-10.579c5.831,0,10.58,4.749,10.58,10.579C157.874,403.515,153.124,408.266,147.293,408.266z"></path> </svg> 