<?xml version="1.0" encoding="UTF-8"?> <!-- Generator: Adobe Illustrator 16.0.0, SVG Export Plug-In . SVG Version: 6.00 Build 0) --> <svg xmlns="http://www.w3.org/2000/svg" xmlns:xlink="http://www.w3.org/1999/xlink" id="Capa_1" x="0px" y="0px" width="611.996px" height="607px" viewBox="0 0 611.996 607" xml:space="preserve"> <g> <g> <g> <path fill="#AE7331" d="M305.627,261.593c-23.18,0-42.039,18.859-42.039,42.039c0,23.181,18.86,42.039,42.039,42.039 c23.181,0,42.04-18.858,42.04-42.039C347.667,280.452,328.808,261.593,305.627,261.593z M305.627,329.172 c-14.082,0-25.538-11.459-25.538-25.539c0-14.083,11.457-25.538,25.538-25.538c14.081,0,25.54,11.455,25.54,25.538 C331.167,317.713,319.707,329.172,305.627,329.172z"></path> </g> </g> <g> <g> <rect x="295.89" y="295.416" fill="#AE7331" width="19.472" height="18.256"></rect> </g> </g> <g> <g> <rect x="417.749" y="290.609" fill="#AE7331" width="111.971" height="18.257"></rect> </g> </g> <g> <g> <rect x="549.193" y="290.609" fill="#AE7331" width="18.256" height="18.257"></rect> </g> </g> <g> <g> <rect x="292.452" y="78.774" fill="#AE7331" width="18.258" height="113.187"></rect> </g> </g> <g> <g> <rect x="292.452" y="42.262" fill="#AE7331" width="18.258" height="18.256"></rect> </g> </g> <g> <g> <rect x="80.618" y="299.007" fill="#AE7331" width="113.187" height="18.256"></rect> </g> </g> <g> <g> <rect x="44.105" y="299.007" fill="#AE7331" width="18.256" height="18.256"></rect> </g> </g> <g> <g> <path fill="#AE7331" stroke="#AE7331" stroke-width="8.7274" stroke-miterlimit="10" d="M576.403,257.124H363.668 c-3.454-4.312-7.374-8.232-11.684-11.686v-28.205c0-14.363,5.254-28.185,14.795-38.919l40.558-45.625 c12.517-14.08,19.407-32.208,19.407-51.047c0-42.37-34.468-76.839-76.837-76.839h-63.039c-15.385,0-27.9,12.516-27.9,27.901 v212.734c-4.313,3.453-8.232,7.373-11.687,11.686h-28.205c-14.363,0-28.183-5.256-38.918-14.797l-45.625-40.558 c-14.081-12.515-32.208-19.409-51.047-19.409c-42.369,0-76.837,34.47-76.837,76.837v63.039c0,15.386,12.516,27.903,27.902,27.903 h212.733c3.453,4.311,7.372,8.229,11.685,11.685v28.207c0,14.361-5.255,28.18-14.796,38.916l-40.558,45.625 c-12.515,14.079-19.409,32.208-19.409,51.047c0,42.367,34.47,76.837,76.837,76.837h63.041c15.385,0,27.902-12.516,27.902-27.899 V361.826c4.31-3.454,8.229-7.373,11.683-11.684h28.208c14.361,0,28.183,5.255,38.915,14.797l45.625,40.557 c14.08,12.517,32.209,19.408,51.047,19.408c42.367,0,76.839-34.468,76.839-76.836v-63.042 C604.305,269.641,591.787,257.124,576.403,257.124z M231.625,313.672v-0.002c0.861,6.359,2.519,12.468,4.883,18.215H34.547 c-5.319,0-9.646-4.328-9.646-9.645v-63.041c0-32.302,26.28-58.581,58.582-58.581c14.361,0,28.182,5.256,38.916,14.798 l45.627,40.557c14.08,12.515,32.208,19.409,51.047,19.409h17.433c-2.59,6.295-4.341,13.018-5.115,20.033h-9.597v18.257H231.625z M277.22,32.705h0.001c0-5.319,4.327-9.646,9.646-9.646h63.041c32.302,0,58.578,26.279,58.578,58.581 c0,14.362-5.252,28.183-14.796,38.917l-40.555,45.625c-12.516,14.08-19.411,32.208-19.411,51.047v17.432 c-6.113-2.514-12.634-4.231-19.432-5.036v-9.674h-18.258v9.752c-6.575,0.834-12.885,2.52-18.816,4.958V32.705L277.22,32.705z M333.729,574.562h-0.002c0,5.318-4.328,9.644-9.645,9.644h-63.041c-32.302,0-58.58-26.277-58.58-58.581 c0-14.36,5.256-28.182,14.797-38.917l40.557-45.625c12.516-14.081,19.409-32.211,19.409-51.046v-17.436 c5.929,2.438,12.241,4.123,18.815,4.959v9.137h18.257v-9.057c6.797-0.807,13.317-2.524,19.433-5.038V574.562z M305.476,359.921 c-31.036,0-56.289-25.251-56.289-56.288c0-31.036,25.252-56.289,56.289-56.289s56.288,25.251,56.288,56.289 C361.764,334.67,336.513,359.921,305.476,359.921z M586.045,348.065c0,32.303-26.275,58.58-58.579,58.58 c-14.361,0-28.182-5.254-38.917-14.797l-45.625-40.556c-14.08-12.515-32.209-19.41-51.045-19.41h-17.436 c2.364-5.747,4.023-11.855,4.881-18.215h9.215v-18.257h-8.982c-0.771-7.016-2.526-13.739-5.114-20.033h201.963 c5.316,0,9.642,4.326,9.642,9.646v63.042H586.045z"></path> </g> </g> <g> <g> <rect x="300.849" y="415.907" fill="#AE7331" width="18.255" height="111.97"></rect> </g> </g> <g> <g> <rect x="300.849" y="547.35" fill="#AE7331" width="18.255" height="18.257"></rect> </g> </g> </g> </svg> 